<svg width="20" height="20" viewBox="0 0 20 20" fill="none" xmlns="http://www.w3.org/2000/svg">
<path d="M1.34006 14.9999C0.917331 14.2689 0.588725 13.4874 0.362061 12.6739C0.855368 12.423 1.26965 12.0406 1.55909 11.5688C1.84852 11.0971 2.00183 10.5545 2.00203 10.0011C2.00224 9.44761 1.84934 8.90489 1.56026 8.43295C1.27118 7.961 0.85718 7.57821 0.364061 7.32694C0.816097 5.69243 1.67679 4.1999 2.86506 2.98994C3.32915 3.29167 3.86768 3.45911 4.42104 3.47373C4.9744 3.48834 5.52101 3.34958 6.00039 3.07278C6.47977 2.79598 6.87321 2.39194 7.13719 1.90539C7.40116 1.41883 7.52537 0.868721 7.49606 0.315945C9.13817 -0.108433 10.8613 -0.107745 12.5031 0.317945C12.474 0.87071 12.5985 1.42073 12.8626 1.90715C13.1268 2.39357 13.5204 2.79742 13.9999 3.07401C14.4794 3.35059 15.026 3.48913 15.5793 3.4743C16.1327 3.45946 16.6711 3.29183 17.1351 2.98994C17.7141 3.57994 18.2281 4.25095 18.6601 4.99995C19.0931 5.74895 19.4171 6.52995 19.6381 7.32595C19.1448 7.57685 18.7305 7.95932 18.441 8.43105C18.1516 8.90278 17.9983 9.44538 17.9981 9.99883C17.9979 10.5523 18.1508 11.095 18.4399 11.5669C18.7289 12.0389 19.1429 12.4217 19.6361 12.6729C19.184 14.3075 18.3233 15.8 17.1351 17.0099C16.671 16.7082 16.1324 16.5408 15.5791 16.5262C15.0257 16.5115 14.4791 16.6503 13.9997 16.9271C13.5204 17.2039 13.1269 17.6079 12.8629 18.0945C12.599 18.5811 12.4748 19.1312 12.5041 19.6839C10.862 20.1083 9.13883 20.1076 7.49706 19.6819C7.52611 19.1292 7.40166 18.5792 7.13748 18.0927C6.8733 17.6063 6.4797 17.2025 6.00023 16.9259C5.52076 16.6493 4.97412 16.5108 4.42079 16.5256C3.86746 16.5404 3.32902 16.7081 2.86506 17.0099C2.27405 16.4069 1.76166 15.7315 1.34006 14.9999ZM7.00006 15.1959C8.06569 15.8106 8.86691 16.797 9.25006 17.9659C9.74906 18.0129 10.2501 18.0139 10.7491 17.9669C11.1325 16.7978 11.9341 15.8114 13.0001 15.1969C14.0653 14.5806 15.3206 14.3794 16.5251 14.6319C16.8151 14.2239 17.0651 13.7889 17.2731 13.3339C16.4525 12.4174 15.9992 11.2302 16.0001 9.99994C16.0001 8.73994 16.4701 7.56295 17.2731 6.66595C17.0636 6.21109 16.8125 5.77658 16.5231 5.36795C15.3193 5.62025 14.0649 5.41942 13.0001 4.80395C11.9344 4.18932 11.1332 3.20293 10.7501 2.03394C10.2511 1.98694 9.75006 1.98594 9.25106 2.03294C8.86766 3.20209 8.06606 4.1885 7.00006 4.80295C5.93484 5.41926 4.67954 5.62046 3.47506 5.36795C3.18563 5.77623 2.93519 6.21081 2.72706 6.66595C3.54763 7.5825 4.00094 8.76974 4.00006 9.99994C4.00006 11.2599 3.53006 12.4369 2.72706 13.3339C2.93653 13.7888 3.1876 14.2233 3.47706 14.6319C4.68078 14.3796 5.93527 14.5805 7.00006 15.1959ZM10.0001 12.9999C9.20441 12.9999 8.44135 12.6839 7.87874 12.1213C7.31613 11.5587 7.00006 10.7956 7.00006 9.99994C7.00006 9.2043 7.31613 8.44123 7.87874 7.87862C8.44135 7.31602 9.20441 6.99995 10.0001 6.99995C10.7957 6.99995 11.5588 7.31602 12.1214 7.87862C12.684 8.44123 13.0001 9.2043 13.0001 9.99994C13.0001 10.7956 12.684 11.5587 12.1214 12.1213C11.5588 12.6839 10.7957 12.9999 10.0001 12.9999ZM10.0001 10.9999C10.2653 10.9999 10.5196 10.8946 10.7072 10.7071C10.8947 10.5195 11.0001 10.2652 11.0001 9.99994C11.0001 9.73473 10.8947 9.48037 10.7072 9.29284C10.5196 9.1053 10.2653 8.99994 10.0001 8.99994C9.73484 8.99994 9.48049 9.1053 9.29295 9.29284C9.10542 9.48037 9.00006 9.73473 9.00006 9.99994C9.00006 10.2652 9.10542 10.5195 9.29295 10.7071C9.48049 10.8946 9.73484 10.9999 10.0001 10.9999Z" fill="#E84A4A"/>
</svg>
